<svg xmlns="http://www.w3.org/2000/svg" xmlns:xlink="http://www.w3.org/1999/xlink" version="1.1" width="1000" height="1000" viewBox="0 0 1000 1000" xml:space="preserve">
<desc>Created with Fabric.js 3.5.0</desc>
<defs>
</defs>
<rect x="0" y="0" width="100%" height="100%" fill="#ffffff"/>
<g transform="matrix(45.4321 0 0 45.4321 502.0003 502.0003)" id="624">
<path style="stroke: rgb(0,0,0); stroke-width: 5; stroke-dasharray: none; stroke-linecap: butt; stroke-dashoffset: 0; stroke-linejoin: miter; stroke-miterlimit: 4; is-custom-font: none; font-file-url: none; fill: rgb(0,146,228); fill-rule: nonzero; opacity: 1;" vector-effect="non-scaling-stroke" transform=" translate(-11.9929, -11.9983)" d="M 20.16 4.61 A 6.27 6.27 0 0 0 12 4 a 6.27 6.27 0 0 0 -8.16 9.48 l 7.45 7.46 a 1 1 0 0 0 1.42 0 l 7.45 -7.46 A 6.27 6.27 0 0 0 20.16 4.61 Z m -1.41 7.45 L 12 18.81 L 5.25 12.06 a 4.26 4.26 0 0 1 5.54 -6.45 l -1.71 4 a 1 1 0 0 0 0 0.83 a 1 1 0 0 0 0.65 0.53 l 2.77 0.7 L 11.1 14.56 a 1 1 0 0 0 0.46 1.34 A 1 1 0 0 0 12 16 a 1 1 0 0 0 0.9 -0.56 l 2 -4 a 1 1 0 0 0 0 -0.86 a 1.05 1.05 0 0 0 -0.67 -0.55 l -2.83 -0.71 l 1.45 -3.39 a 4.26 4.26 0 0 1 5.92 6.13 Z" stroke-linecap="round"/>
</g>
</svg>